<svg xmlns="http://www.w3.org/2000/svg" viewBox="0 0 441.35 113.63"><defs><style>.cls-1{fill:#32063d;}.cls-2,.cls-6{fill:#fff;}.cls-2{opacity:0.05;}.cls-3{fill:#3e054c;}.cls-4{fill:#4f0060;}.cls-5{opacity:0.03;}.cls-7{fill:#f4511e;}.cls-8{opacity:0.1;}</style></defs><g id="Layer_2" data-name="Layer 2"><g id="Layer_1-2" data-name="Layer 1"><path d="M168.93,64.26l-.06-28.07L155.94,59.31h-4.58L138.49,36.79V64.26H129V17.48h8.4l16.45,29.07L170,17.48h8.34l.13,46.78Z"/><path d="M218.07,43.74V64.26h-9.16V59.78c-1.82,3.28-5.34,5-10.29,5-7.91,0-12.62-4.67-12.62-10.89s4.21-10.76,14.5-10.76h7.78c0-4.48-2.51-7.08-7.78-7.08a15.6,15.6,0,0,0-9.73,3.34l-3.51-7.28c3.7-2.81,9.16-4.35,14.56-4.35C212.11,27.77,218.07,32.85,218.07,43.74Zm-9.79,9.16V49.22h-6.72c-4.58,0-6,1.81-6,4.21,0,2.61,2.07,4.35,5.52,4.35A7.21,7.21,0,0,0,208.28,52.9Z"/><path d="M223.66,60.92l3.26-7.49a22,22,0,0,0,11.73,3.48c4.52,0,6.22-1.27,6.22-3.28,0-5.88-20.4.14-20.4-14.23,0-6.82,5.77-11.63,15.63-11.63,4.64,0,9.79,1.14,13,3.14l-3.27,7.42a18.48,18.48,0,0,0-9.72-2.67c-4.4,0-6.28,1.47-6.28,3.34,0,6.15,20.4.2,20.4,14.37,0,6.68-5.84,11.42-15.94,11.42C232.57,64.79,226.79,63.12,223.66,60.92Z"/><path d="M282,62.52a13.34,13.34,0,0,1-8,2.27c-8,0-12.61-4.34-12.61-12.89V37.13h-5.21v-8h5.21V20.35h9.79v8.76h8.4v8h-8.4V51.76c0,3.08,1.56,4.75,4.2,4.75a6.31,6.31,0,0,0,3.95-1.34Z"/><path d="M319.36,49.22H293.82c.94,4.48,4.52,7.22,9.66,7.22A11.09,11.09,0,0,0,312,53l5.21,6c-3.13,3.81-7.84,5.81-13.93,5.81C291.56,64.79,284,57,284,46.28s7.71-18.51,18-18.51c9.91,0,17.57,7.09,17.57,18.65C319.55,47.22,319.42,48.35,319.36,49.22Zm-25.67-6.08h16.63c-.69-4.54-3.89-7.48-8.28-7.48S294.38,38.53,293.69,43.14Z"/><path d="M347,27.77v9.62c-.82-.06-1.45-.13-2.2-.13-5.4,0-9,3.14-9,10v17h-9.79V28.31h9.35v4.74C337.81,29.58,341.83,27.77,347,27.77Z"/><path d="M351.31,41.27h17.76v8.35H351.31Z"/><path d="M375,40.87c0-13.9,10.17-24.19,24-24.19s24,10.22,24,24.19-10.23,24.19-24,24.19S375,54.77,375,40.87Zm37.78,0c0-8.89-5.9-15-13.74-15s-13.74,6.08-13.74,15,5.9,15,13.74,15S412.74,49.76,412.74,40.87Z"/><path d="M433.47,10.41a7.88,7.88,0,1,0,7.88,7.88,7.9,7.9,0,0,0-7.88-7.88Zm0,13.59a5.71,5.71,0,1,1,5.71-5.71A5.71,5.71,0,0,1,433.47,24Zm2.87-6.73c0-1.59-1.12-2.58-2.92-2.58h-2.66v7.2h1.53v-2h1.34l1.47,2H437l-1.79-2.45a2.47,2.47,0,0,0,1.14-2.17Zm-2.92,1.09h-1.13V16.21h1.13c1.39,0,1.39.8,1.39,1.06s0,1.09-1.39,1.09Zm0,0"/><path d="M129.55,79.67h1.72V95.92h-1.72Z"/><path d="M156.35,88.84v7.08h-1.64V89c0-2.57-1.3-3.9-3.51-3.9-2.5,0-4.08,1.63-4.08,4.41v6.41h-1.65V89c0-2.57-1.3-3.9-3.53-3.9-2.48,0-4.08,1.63-4.08,4.41v6.41h-1.65V83.71h1.58v2.23a5,5,0,0,1,4.48-2.32,4.4,4.4,0,0,1,4.34,2.57,5.32,5.32,0,0,1,4.82-2.57C154.4,83.62,156.35,85.33,156.35,88.84Z"/><path d="M173.19,89.81A5.91,5.91,0,0,1,167.11,96a5.32,5.32,0,0,1-4.64-2.41v6.8h-1.64V83.71h1.57v2.41a5.32,5.32,0,0,1,4.71-2.5A5.9,5.9,0,0,1,173.19,89.81Zm-1.64,0A4.55,4.55,0,1,0,167,94.57,4.49,4.49,0,0,0,171.55,89.81Z"/><path d="M182.7,83.62v1.6l-.39,0c-2.55,0-4.11,1.62-4.11,4.5v6.22h-1.65V83.71h1.58V86.1C178.9,84.48,180.45,83.62,182.7,83.62Z"/><path d="M184.32,89.81A6.21,6.21,0,1,1,190.54,96,6,6,0,0,1,184.32,89.81Zm10.75,0a4.54,4.54,0,1,0-4.53,4.76A4.45,4.45,0,0,0,195.07,89.81Z"/><path d="M210,83.71l-5.43,12.21h-1.7l-5.4-12.21h1.71l4.58,10.4,4.61-10.4Z"/><path d="M222.6,90.32H212.39a4.52,4.52,0,0,0,4.81,4.25,4.78,4.78,0,0,0,3.73-1.6l.93,1.07a6.45,6.45,0,0,1-11.11-4.23,5.95,5.95,0,1,1,11.88,0C222.63,90,222.6,90.14,222.6,90.32Zm-10.21-1.23h8.66a4.34,4.34,0,0,0-8.66,0Z"/><path d="M230.37,94.52l.74-1.3a7.38,7.38,0,0,0,4.34,1.37c2.32,0,3.28-.79,3.28-2,0-3.18-7.92-.68-7.92-5.5,0-2,1.72-3.48,4.83-3.48A8.36,8.36,0,0,1,240,84.75l-.72,1.33a6.23,6.23,0,0,0-3.6-1c-2.21,0-3.18.86-3.18,2,0,3.3,7.91.81,7.91,5.5,0,2.11-1.85,3.48-5,3.48A8.16,8.16,0,0,1,230.37,94.52Z"/><path d="M247.93,89.79l-2.87,2.64v3.49h-1.65V78.7h1.65V90.37l7.28-6.66h2l-5.23,5,5.71,7.22h-2Z"/><path d="M256.8,79.86A1.21,1.21,0,1,1,258,81,1.18,1.18,0,0,1,256.8,79.86Zm.37,3.85h1.64V95.92h-1.64Z"/><path d="M263.41,78.7h1.64V95.92h-1.64Z"/><path d="M269.65,78.7h1.64V95.92h-1.64Z"/><path d="M274.19,94.52l.75-1.3a7.32,7.32,0,0,0,4.33,1.37c2.33,0,3.28-.79,3.28-2,0-3.18-7.92-.68-7.92-5.5,0-2,1.72-3.48,4.83-3.48a8.33,8.33,0,0,1,4.32,1.13l-.72,1.33a6.23,6.23,0,0,0-3.6-1c-2.2,0-3.18.86-3.18,2,0,3.3,7.91.81,7.91,5.5,0,2.11-1.85,3.48-5,3.48A8.16,8.16,0,0,1,274.19,94.52Z"/><path d="M288.65,94.76a3.86,3.86,0,0,1-.33,1.34l-1,3.2h-1.12l.79-3.36a1.17,1.17,0,0,1-.83-1.18,1.23,1.23,0,1,1,2.46,0Z"/><path d="M308.85,90.32H298.64a4.52,4.52,0,0,0,4.81,4.25,4.8,4.8,0,0,0,3.73-1.6l.93,1.07A6.45,6.45,0,0,1,297,89.81a5.95,5.95,0,1,1,11.88,0C308.88,90,308.85,90.14,308.85,90.32Zm-10.21-1.23h8.66a4.34,4.34,0,0,0-8.66,0Z"/><path d="M314.12,82.27v1.44h3.76V85.1h-3.72V95.92h-1.64V85.1h-2.18V83.71h2.18V82.2a3.36,3.36,0,0,1,3.69-3.62,3.86,3.86,0,0,1,2.43.77l-.55,1.23a2.79,2.79,0,0,0-1.81-.61C314.86,80,314.12,80.76,314.12,82.27Z"/><path d="M322,82.27v1.44h3.76V85.1H322V95.92h-1.65V85.1H318.2V83.71h2.18V82.2a3.36,3.36,0,0,1,3.69-3.62,3.91,3.91,0,0,1,2.44.77L326,80.58a2.75,2.75,0,0,0-1.81-.61C322.72,80,322,80.76,322,82.27Z"/><path d="M326.53,89.81A6.21,6.21,0,1,1,332.75,96,6,6,0,0,1,326.53,89.81Zm10.74,0a4.54,4.54,0,1,0-4.52,4.76A4.45,4.45,0,0,0,337.27,89.81Z"/><path d="M348.45,83.62v1.6l-.39,0c-2.56,0-4.11,1.62-4.11,4.5v6.22H342.3V83.71h1.58V86.1C344.65,84.48,346.2,83.62,348.45,83.62Z"/><path d="M358.38,95.17a3.92,3.92,0,0,1-2.58.86,3.23,3.23,0,0,1-3.57-3.55V85.1h-2.18V83.71h2.18V81h1.65v2.67h3.71V85.1h-3.71v7.29A2,2,0,0,0,356,94.62,2.72,2.72,0,0,0,357.8,94Z"/><path d="M361.37,78.7H363V95.92h-1.65Z"/><path d="M378.24,90.32H368a4.51,4.51,0,0,0,4.8,4.25,4.81,4.81,0,0,0,3.74-1.6L377.5,94a6.46,6.46,0,0,1-11.12-4.23,5.87,5.87,0,0,1,6-6.19,5.81,5.81,0,0,1,5.92,6.19C378.26,90,378.24,90.14,378.24,90.32ZM368,89.09h8.65a4.33,4.33,0,0,0-8.65,0Z"/><path d="M379.93,94.52l.74-1.3A7.35,7.35,0,0,0,385,94.59c2.32,0,3.27-.79,3.27-2,0-3.18-7.91-.68-7.91-5.5,0-2,1.72-3.48,4.83-3.48a8.32,8.32,0,0,1,4.31,1.13l-.72,1.33a6.18,6.18,0,0,0-3.59-1c-2.21,0-3.18.86-3.18,2,0,3.3,7.91.81,7.91,5.5,0,2.11-1.86,3.48-5,3.48A8.15,8.15,0,0,1,379.93,94.52Z"/><path d="M391.27,94.52l.75-1.3a7.32,7.32,0,0,0,4.33,1.37c2.32,0,3.28-.79,3.28-2,0-3.18-7.92-.68-7.92-5.5,0-2,1.72-3.48,4.83-3.48a8.36,8.36,0,0,1,4.32,1.13l-.72,1.33a6.23,6.23,0,0,0-3.6-1c-2.2,0-3.18.86-3.18,2,0,3.3,7.91.81,7.91,5.5,0,2.11-1.85,3.48-5,3.48A8.16,8.16,0,0,1,391.27,94.52Z"/><path d="M404.31,78.7H406V95.92h-1.65Z"/><path d="M420.81,83.71,414.7,97.38c-1,2.39-2.32,3.15-4.06,3.15a4.21,4.21,0,0,1-3-1.11l.77-1.23a3,3,0,0,0,2.23.93c1.09,0,1.83-.51,2.53-2l.53-1.19-5.45-12.18H410l4.6,10.37,4.59-10.37Z"/><path class="cls-1" d="M55,77.62l-.56-.31A6.1,6.1,0,0,1,52.13,69l20.8-37.78a6,6,0,0,1,8.21-2.37l.55.31a6.1,6.1,0,0,1,2.36,8.27L63.25,75.25A6,6,0,0,1,55,77.62Z"/><polygon class="cls-2" points="57.38 59.5 57.92 59.81 73.13 33.16 72.17 32.62 57.38 59.5"/><path class="cls-3" d="M32.27,29.25l-.51.31A6.14,6.14,0,0,0,29.71,38L52.26,75.76a6.05,6.05,0,0,0,8.34,2.12l.51-.31a6.15,6.15,0,0,0,2-8.41L40.61,31.38A6.07,6.07,0,0,0,32.27,29.25Z"/><path class="cls-1" d="M63.16,69.16,40.61,31.38a6.07,6.07,0,0,0-8.34-2.13l-.51.31a6.08,6.08,0,0,0-2.57,3.15,6.13,6.13,0,0,1,5.34,3L57.08,73.49a6.18,6.18,0,0,1,.51,5.25,5.93,5.93,0,0,0,3-.86l.51-.31A6.15,6.15,0,0,0,63.16,69.16Z"/><rect class="cls-4" x="28.64" y="28.09" width="12.97" height="56.97" rx="6.06"/><rect class="cls-4" x="72.02" y="28.09" width="12.97" height="56.97" rx="6.06"/><path class="cls-3" d="M56.81,0a56.82,56.82,0,1,0,56.82,56.81A56.82,56.82,0,0,0,56.81,0Zm0,108.83a52,52,0,1,1,52-52A52,52,0,0,1,56.81,108.83Z"/><g class="cls-5"><path class="cls-6" d="M56.81,0a56.82,56.82,0,1,0,56.82,56.81A56.82,56.82,0,0,0,56.81,0Zm0,112.23a55.42,55.42,0,1,1,55.42-55.42A55.41,55.41,0,0,1,56.81,112.23Z"/></g><circle class="cls-7" cx="95.58" cy="18.18" r="6.68"/><path class="cls-2" d="M95.58,11.5l-.43,0c3.49.23,5.83,3.12,5.83,6.66s-2.34,6.44-5.83,6.67l.43,0a6.69,6.69,0,0,0,0-13.37Z"/><g class="cls-8"><polygon class="cls-6" points="34.71 85.03 34.72 85.03 35.57 85.03 35.57 85.03 34.71 85.03"/><path class="cls-6" d="M31.16,29.22a6,6,0,0,0-2.5,4.9V79a6,6,0,0,0,2.5,4.89Z"/></g><g class="cls-8"><polygon class="cls-6" points="78.93 85.06 78.93 85.06 78.08 85.06 78.08 85.06 78.93 85.06"/><path class="cls-6" d="M82.49,29.25a6,6,0,0,1,2.5,4.9V79a6,6,0,0,1-2.5,4.89Z"/></g></g></g></svg>